HIERARCHY
ROOT Hips
{
	OFFSET 0 0 0
	CHANNELS 6 Xposition Yposition Zposition Yrotation Xrotation Zrotation
	JOINT Spine
	{
		OFFSET -0 8.00685 -2.55218
		CHANNELS 3 Yrotation Xrotation Zrotation
		JOINT Spine1
		{
			OFFSET -0 7.45793 0
			CHANNELS 3 Yrotation Xrotation Zrotation
			JOINT Spine2
			{
				OFFSET -0 7.45793 0
				CHANNELS 3 Yrotation Xrotation Zrotation
				JOINT Spine3
				{
					OFFSET -0 7.45793 0
					CHANNELS 3 Yrotation Xrotation Zrotation
					JOINT Neck
					{
						OFFSET -0 14.9948 3.55218
						CHANNELS 3 Yrotation Xrotation Zrotation
						JOINT Head
						{
							OFFSET -0 10.0086 0
							CHANNELS 3 Yrotation Xrotation Zrotation
							End Site
							{
								OFFSET 0 15 0
							}
						}
					}
					JOINT LeftShoulder
					{
						OFFSET 1.66809 3.17829 3.33619
						CHANNELS 3 Yrotation Xrotation Zrotation
						JOINT LeftArm
						{
							OFFSET 18.653 0 0
							CHANNELS 3 Yrotation Xrotation Zrotation
							JOINT LeftForeArm
							{
								OFFSET 22.9554 0 0
								CHANNELS 3 Yrotation Xrotation Zrotation
								JOINT LeftHand
								{
									OFFSET 21.8677 0 0
									CHANNELS 3 Yrotation Xrotation Zrotation
									JOINT LeftHandThumb1
									{
										OFFSET 4.74436 0 2.66649
										CHANNELS 3 Yrotation Xrotation Zrotation
										JOINT LeftHandThumb2
										{
											OFFSET 3 0 1
											CHANNELS 3 Yrotation Xrotation Zrotation
											JOINT LeftHandThumb3
											{
												OFFSET 2.1 0 0
												CHANNELS 3 Yrotation Xrotation Zrotation
												JOINT LeftHandThumb4
												{
													OFFSET 1.305 0 0
													CHANNELS 3 Yrotation Xrotation Zrotation
													End Site
													{
														OFFSET -0 0 0
													}
												}
											}
										}
									}
									JOINT LeftHandIndex1
									{
										OFFSET 8.93865 0 3.46871
										CHANNELS 3 Yrotation Xrotation Zrotation
										JOINT LeftHandIndex2
										{
											OFFSET 3.5 0 0
											CHANNELS 3 Yrotation Xrotation Zrotation
											JOINT LeftHandIndex3
											{
												OFFSET 2.45 0 0
												CHANNELS 3 Yrotation Xrotation Zrotation
												JOINT LeftHandIndex4
												{
													OFFSET 1.5225 0 0
													CHANNELS 3 Yrotation Xrotation Zrotation
													End Site
													{
														OFFSET -0 0 0
													}
												}
											}
										}
									}
									JOINT LeftHandMiddle1
									{
										OFFSET 8.93983 0 1.07882
										CHANNELS 3 Yrotation Xrotation Zrotation
										JOINT LeftHandMiddle2
										{
											OFFSET 4.6 0 0
											CHANNELS 3 Yrotation Xrotation Zrotation
											JOINT LeftHandMiddle3
											{
												OFFSET 3.22 0 0
												CHANNELS 3 Yrotation Xrotation Zrotation
												JOINT LeftHandMiddle4
												{
													OFFSET 2.001 0 0
													CHANNELS 3 Yrotation Xrotation Zrotation
													End Site
													{
														OFFSET -0 0 0
													}
												}
											}
										}
									}
									JOINT LeftHandRing1
									{
										OFFSET 8.64101 0 -1.31106
										CHANNELS 3 Yrotation Xrotation Zrotation
										JOINT LeftHandRing2
										{
											OFFSET 3.75 0 0
											CHANNELS 3 Yrotation Xrotation Zrotation
											JOINT LeftHandRing3
											{
												OFFSET 2.625 0 0
												CHANNELS 3 Yrotation Xrotation Zrotation
												JOINT LeftHandRing4
												{
													OFFSET 1.63125 0 0
													CHANNELS 3 Yrotation Xrotation Zrotation
													End Site
													{
														OFFSET -0 0 0
													}
												}
											}
										}
									}
									JOINT LeftHandPinky1
									{
										OFFSET 8.04219 0 -3.70094
										CHANNELS 3 Yrotation Xrotation Zrotation
										JOINT LeftHandPinky2
										{
											OFFSET 2.875 0 0
											CHANNELS 3 Yrotation Xrotation Zrotation
											JOINT LeftHandPinky3
											{
												OFFSET 2.0125 0 0
												CHANNELS 3 Yrotation Xrotation Zrotation
												JOINT LeftHandPinky4
												{
													OFFSET 1.25062 0 0
													CHANNELS 3 Yrotation Xrotation Zrotation
													End Site
													{
														OFFSET -0 0 0
													}
												}
											}
										}
									}
								}
							}
						}
					}
					JOINT RightShoulder
					{
						OFFSET -1.66809 3.17829 3.33619
						CHANNELS 3 Yrotation Xrotation Zrotation
						JOINT RightArm
						{
							OFFSET -18.653 0 0
							CHANNELS 3 Yrotation Xrotation Zrotation
							JOINT RightForeArm
							{
								OFFSET -22.9554 0 0
								CHANNELS 3 Yrotation Xrotation Zrotation
								JOINT RightHand
								{
									OFFSET -21.8677 0 0
									CHANNELS 3 Yrotation Xrotation Zrotation
									JOINT RightHandThumb1
									{
										OFFSET -4.93523 0 1.98499
										CHANNELS 3 Yrotation Xrotation Zrotation
										JOINT RightHandThumb2
										{
											OFFSET -3 0 1
											CHANNELS 3 Yrotation Xrotation Zrotation
											JOINT RightHandThumb3
											{
												OFFSET -2.1 0 0
												CHANNELS 3 Yrotation Xrotation Zrotation
												JOINT RightHandThumb4
												{
													OFFSET -1.305 0 0
													CHANNELS 3 Yrotation Xrotation Zrotation
													End Site
													{
														OFFSET -0 0 0
													}
												}
											}
										}
									}
									JOINT RightHandIndex1
									{
										OFFSET -9.43254 0 2.90277
										CHANNELS 3 Yrotation Xrotation Zrotation
										JOINT RightHandIndex2
										{
											OFFSET -3.5 0 0
											CHANNELS 3 Yrotation Xrotation Zrotation
											JOINT RightHandIndex3
											{
												OFFSET -2.45 0 0
												CHANNELS 3 Yrotation Xrotation Zrotation
												JOINT RightHandIndex4
												{
													OFFSET -1.5225 0 0
													CHANNELS 3 Yrotation Xrotation Zrotation
													End Site
													{
														OFFSET -0 0 0
													}
												}
											}
										}
									}
									JOINT RightHandMiddle1
									{
										OFFSET -9.35706 0 0.88564
										CHANNELS 3 Yrotation Xrotation Zrotation
										JOINT RightHandMiddle2
										{
											OFFSET -4.6 0 0
											CHANNELS 3 Yrotation Xrotation Zrotation
											JOINT RightHandMiddle3
											{
												OFFSET -3.22 0 0
												CHANNELS 3 Yrotation Xrotation Zrotation
												JOINT RightHandMiddle4
												{
													OFFSET -2.001 0 0
													CHANNELS 3 Yrotation Xrotation Zrotation
													End Site
													{
														OFFSET -0 0 0
													}
												}
											}
										}
									}
									JOINT RightHandRing1
									{
										OFFSET -8.98158 0 -1.13149
										CHANNELS 3 Yrotation Xrotation Zrotation
										JOINT RightHandRing2
										{
											OFFSET -3.75 0 0
											CHANNELS 3 Yrotation Xrotation Zrotation
											JOINT RightHandRing3
											{
												OFFSET -2.625 0 0
												CHANNELS 3 Yrotation Xrotation Zrotation
												JOINT RightHandRing4
												{
													OFFSET -1.63125 0 0
													CHANNELS 3 Yrotation Xrotation Zrotation
													End Site
													{
														OFFSET -0 0 0
													}
												}
											}
										}
									}
									JOINT RightHandPinky1
									{
										OFFSET -8.3061 0 -3.14863
										CHANNELS 3 Yrotation Xrotation Zrotation
										JOINT RightHandPinky2
										{
											OFFSET -2.875 0 0
											CHANNELS 3 Yrotation Xrotation Zrotation
											JOINT RightHandPinky3
											{
												OFFSET -2.0125 0 0
												CHANNELS 3 Yrotation Xrotation Zrotation
												JOINT RightHandPinky4
												{
													OFFSET -1.25062 0 0
													CHANNELS 3 Yrotation Xrotation Zrotation
													End Site
													{
														OFFSET -0 0 0
													}
												}
											}
										}
									}
								}
							}
						}
					}
				}
			}
		}
	}
	JOINT LeftUpLeg
	{
		OFFSET 10.0086 -3.33619 3
		CHANNELS 3 Yrotation Xrotation Zrotation
		JOINT LeftLeg
		{
			OFFSET -0 -43.585 2.33533
			CHANNELS 3 Yrotation Xrotation Zrotation
			JOINT LeftFoot
			{
				OFFSET -0 -36.8654 -2.33533
				CHANNELS 3 Yrotation Xrotation Zrotation
				JOINT LeftToeBase
				{
					OFFSET -0 -9.43469 9.49123
					CHANNELS 3 Yrotation Xrotation Zrotation
					End Site
					{
						OFFSET 0 0 5
					}
				}
			}
		}
	}
	JOINT RightUpLeg
	{
		OFFSET -10.0086 -3.33619 3
		CHANNELS 3 Yrotation Xrotation Zrotation
		JOINT RightLeg
		{
			OFFSET -0 -43.585 2.33533
			CHANNELS 3 Yrotation Xrotation Zrotation
			JOINT RightFoot
			{
				OFFSET -0 -36.8654 -2.33533
				CHANNELS 3 Yrotation Xrotation Zrotation
				JOINT RightToeBase
				{
					OFFSET -0 -9.43469 9.49123
					CHANNELS 3 Yrotation Xrotation Zrotation
					End Site
					{
						OFFSET 0 0 5
					}
				}
			}
		}
	}
}
MOTION
Frames: 7
Frame Time: 0.0047619
0 93.750966 0 0 0 0 0 0 0 0 0 0 0 0 0 0 0 0 0 0 0 0 0 0 0 0 0 0 0 0 0 0 0 0 0 0 0 0 0 0 0 0 0 0 0 0 0 0 0 0 0 0 0 0 0 0 0 0 0 0 0 0 0 0 0 0 0 0 0 0 0 0 0 0 0 0 0 0 0 0 0 0 0 0 0 0 0 0 0 0 0 0 0 0 0 0 0 0 0 0 0 0 0 0 0 0 0 0 0 0 0 0 0 0 0 0 0 0 0 0 0 0 0 0 0 0 0 0 0 0 0 0 0 0 0 0 0 0 0 0 0 0 0 0 0 0 0 0 0 0 0 0 0 0 0 0 0 0 0 0 0 0 0 0 0 0 0 0 0 0 0 0 0 0 0 0 0 0 0 0 0 0 0 0 0 0 0 0 0 0 0 0
-23.642287 93.531976 9.489141 2.332310 -1.596350 -1.045388 -0.043489 0.522366 0.328690 -0.046597 0.627910 0.212909 -0.118046 0.751621 0.109128 -0.145496 0.817173 0.040451 0.388160 1.146462 0.272155 0.191984 -3.238893 -1.036008 7.166423 3.632073 11.022550 -19.040501 -1.767363 -4.200717 -8.307306 0.544872 1.011138 15.166384 -0.571023 -28.514538 31.921727 3.209855 -2.519082 36.708201 3.793389 -2.729193 -39.192323 -13.271728 0.573741 -0.000002 -0.000011 -1.039331 -0.000002 -0.000011 -1.039331 -0.000010 -0.000002 -0.831465 -0.000005 -0.000013 -0.415732 -0.000007 -0.000019 0.654647 -0.000007 -0.000019 0.654647 -0.000009 -0.000004 0.523719 -0.000010 -0.000010 0.261855 -0.000015 -0.000027 6.446273 -0.000015 -0.000027 6.446273 -0.000022 -0.000020 5.157021 -0.000004 -0.000012 2.578512 -0.000009 -0.000011 -0.355919 -0.000009 -0.000011 -0.355919 -0.000002 -0.000014 -0.284737 -0.000012 -0.000004 -0.142370 -174.713361 -0.002980 -179.935447 -6.005358 5.414235 -11.220323 16.844725 -1.227826 0.737945 7.950718 2.328699 -0.682416 -9.530096 -1.501667 25.399882 -0.708127 5.286766 -14.224158 -0.927842 6.058881 -16.374156 -48.160479 31.311456 -5.659593 0.000003 0.000007 -12.500003 0.000003 0.000007 -12.500003 -0.000001 -0.000003 -10.000003 0.000002 -0.000000 -4.999999 0.000003 0.000007 -12.500003 0.000003 0.000007 -12.500003 -0.000001 -0.000003 -10.000003 0.000002 -0.000000 -4.999999 -0.000000 0.000006 47.218869 -0.000000 0.000006 47.218869 0.000004 0.000001 37.775104 -0.000003 0.000001 18.887546 0.000005 0.000001 24.819696 0.000005 0.000001 24.819696 -0.000006 0.000001 19.855742 0.000001 0.000002 9.927876 31.921727 3.209855 -2.519082 4.325253 6.432150 5.341749 0.000000 1.596904 0.000000 0.190657 -3.115146 1.147262 0.000000 -6.066628 0.000000 -7.523347 4.643254 -0.249622 0.000000 2.851903 0.000000 -9.605714 0.091828 2.671389 0.000000 -8.741326 0.000000
-23.639758 93.531964 9.488317 2.330440 -1.596695 -1.044909 -0.045674 0.525238 0.324774 -0.048520 0.624104 0.210099 -0.117046 0.756792 0.108715 -0.144381 0.820463 0.040881 0.407366 1.135744 0.286578 0.200407 -3.194328 -1.049785 7.155636 3.617306 11.023721 -19.037604 -1.753801 -4.197844 -8.296990 0.571231 0.996614 15.138998 -0.605649 -28.505453 31.921727 3.209855 -2.519082 36.708201 3.793389 -2.729193 -39.192323 -13.271728 0.573741 -0.000002 -0.000011 -1.039331 -0.000002 -0.000011 -1.039331 -0.000010 -0.000002 -0.831465 -0.000005 -0.000013 -0.415732 -0.000007 -0.000019 0.654647 -0.000007 -0.000019 0.654647 -0.000009 -0.000004 0.523719 -0.000010 -0.000010 0.261855 -0.000015 -0.000027 6.446273 -0.000015 -0.000027 6.446273 -0.000022 -0.000020 5.157021 -0.000004 -0.000012 2.578512 -0.000009 -0.000011 -0.355919 -0.000009 -0.000011 -0.355919 -0.000002 -0.000014 -0.284737 -0.000012 -0.000004 -0.142370 -174.713361 -0.002980 -179.935447 -5.996747 5.416141 -11.222461 16.849375 -1.248319 0.739635 7.931153 2.341330 -0.682452 -9.525530 -1.500709 25.392267 -0.708127 5.286766 -14.224158 -0.927842 6.058881 -16.374156 -48.160479 31.311456 -5.659593 0.000003 0.000007 -12.500003 0.000003 0.000007 -12.500003 -0.000001 -0.000003 -10.000003 0.000002 -0.000000 -4.999999 0.000003 0.000007 -12.500003 0.000003 0.000007 -12.500003 -0.000001 -0.000003 -10.000003 0.000002 -0.000000 -4.999999 -0.000000 0.000006 47.218869 -0.000000 0.000006 47.218869 0.000004 0.000001 37.775104 -0.000003 0.000001 18.887546 0.000005 0.000001 24.819696 0.000005 0.000001 24.819696 -0.000006 0.000001 19.855742 0.000001 0.000002 9.927876 31.921727 3.209855 -2.519082 4.324528 6.431264 5.343720 0.000000 1.592552 0.000000 0.202996 -3.084475 1.134732 0.000000 -6.110082 0.000000 -7.536524 4.642529 -0.249572 0.000000 2.851549 0.000000 -9.580360 0.091798 2.638414 0.000000 -8.703052 0.000000
-23.634035 93.532813 9.485706 2.332353 -1.597827 -1.050265 -0.052100 0.532031 0.333055 -0.055452 0.620407 0.213017 -0.105536 0.751032 0.107276 -0.133093 0.834297 0.037303 0.400768 1.150549 0.264888 0.196084 -3.203361 -0.997759 7.145988 3.620531 11.026008 -19.055485 -1.750919 -4.200588 -8.294137 0.519475 0.999365 15.126566 -0.575122 -28.492393 31.921727 3.209855 -2.519082 36.708201 3.793389 -2.729193 -39.192323 -13.271728 0.573741 -0.000002 -0.000011 -1.039331 -0.000002 -0.000011 -1.039331 -0.000010 -0.000002 -0.831465 -0.000005 -0.000013 -0.415732 -0.000007 -0.000019 0.654647 -0.000007 -0.000019 0.654647 -0.000009 -0.000004 0.523719 -0.000010 -0.000010 0.261855 -0.000015 -0.000027 6.446273 -0.000015 -0.000027 6.446273 -0.000022 -0.000020 5.157021 -0.000004 -0.000012 2.578512 -0.000009 -0.000011 -0.355919 -0.000009 -0.000011 -0.355919 -0.000002 -0.000014 -0.284737 -0.000012 -0.000004 -0.142370 -174.713361 -0.002980 -179.935447 -5.994776 5.412039 -11.224096 16.828713 -1.250291 0.739190 7.937336 2.358902 -0.685352 -9.529016 -1.517828 25.388409 -0.708127 5.286766 -14.224158 -0.927842 6.058881 -16.374156 -48.160479 31.311456 -5.659593 0.000003 0.000007 -12.500003 0.000003 0.000007 -12.500003 -0.000001 -0.000003 -10.000003 0.000002 -0.000000 -4.999999 0.000003 0.000007 -12.500003 0.000003 0.000007 -12.500003 -0.000001 -0.000003 -10.000003 0.000002 -0.000000 -4.999999 -0.000000 0.000006 47.218869 -0.000000 0.000006 47.218869 0.000004 0.000001 37.775104 -0.000003 0.000001 18.887546 0.000005 0.000001 24.819696 0.000005 0.000001 24.819696 -0.000006 0.000001 19.855742 0.000001 0.000002 9.927876 31.921727 3.209855 -2.519082 4.322388 6.430994 5.343483 0.000000 1.595909 0.000000 0.224577 -3.087365 1.141086 0.000000 -6.149570 0.000000 -7.532317 4.642854 -0.251630 0.000000 2.852230 0.000000 -9.580225 0.108241 2.678334 0.000000 -8.722165 0.000000
-23.629758 93.531238 9.486277 2.327909 -1.596229 -1.049727 -0.053016 0.524889 0.331914 -0.056396 0.627385 0.212344 -0.105254 0.757022 0.108212 -0.132589 0.828648 0.036124 0.408338 1.172784 0.272218 0.199728 -3.217831 -1.013234 7.137503 3.612109 11.025727 -19.050212 -1.780769 -4.203870 -8.291895 0.574111 0.990869 15.108660 -0.596227 -28.491877 31.921727 3.209855 -2.519082 36.708201 3.793389 -2.729193 -39.192323 -13.271728 0.573741 -0.000002 -0.000011 -1.039331 -0.000002 -0.000011 -1.039331 -0.000010 -0.000002 -0.831465 -0.000005 -0.000013 -0.415732 -0.000007 -0.000019 0.654647 -0.000007 -0.000019 0.654647 -0.000009 -0.000004 0.523719 -0.000010 -0.000010 0.261855 -0.000015 -0.000027 6.446273 -0.000015 -0.000027 6.446273 -0.000022 -0.000020 5.157021 -0.000004 -0.000012 2.578512 -0.000009 -0.000011 -0.355919 -0.000009 -0.000011 -0.355919 -0.000002 -0.000014 -0.284737 -0.000012 -0.000004 -0.142370 -174.713361 -0.002980 -179.935447 -5.987101 5.408352 -11.231813 16.831793 -1.258206 0.748714 7.930529 2.368921 -0.686331 -9.532311 -1.514974 25.378795 -0.708127 5.286766 -14.224158 -0.927842 6.058881 -16.374156 -48.160479 31.311456 -5.659593 0.000003 0.000007 -12.500003 0.000003 0.000007 -12.500003 -0.000001 -0.000003 -10.000003 0.000002 -0.000000 -4.999999 0.000003 0.000007 -12.500003 0.000003 0.000007 -12.500003 -0.000001 -0.000003 -10.000003 0.000002 -0.000000 -4.999999 -0.000000 0.000006 47.218869 -0.000000 0.000006 47.218869 0.000004 0.000001 37.775104 -0.000003 0.000001 18.887546 0.000005 0.000001 24.819696 0.000005 0.000001 24.819696 -0.000006 0.000001 19.855742 0.000001 0.000002 9.927876 31.921727 3.209855 -2.519082 4.347682 6.429646 5.339939 0.000000 1.598153 0.000000 0.182228 -3.133448 1.157145 0.000000 -6.006582 0.000000 -7.515497 4.645758 -0.252654 0.000000 2.840783 0.000000 -9.588694 0.100877 2.673639 0.000000 -8.725906 0.000000
-23.625307 93.529761 9.483880 2.329930 -1.595968 -1.052526 -0.053018 0.523646 0.335289 -0.056553 0.624480 0.213774 -0.111537 0.769685 0.105084 -0.138431 0.825509 0.034086 0.420812 1.189670 0.264245 0.204027 -3.215506 -0.975345 7.136292 3.618313 11.037800 -19.041537 -1.798204 -4.219645 -8.301514 0.515253 0.988266 15.127891 -0.495696 -28.573183 31.873545 3.338692 -2.454669 36.653333 3.937627 -2.649602 -39.210100 -13.364093 0.509990 -0.000000 0.000000 -1.031067 -0.000000 0.000000 -1.031067 0.000000 0.000003 -0.824856 -0.000003 -0.000005 -0.412427 -0.000009 -0.000001 0.644931 -0.000009 -0.000001 0.644931 0.000003 -0.000007 0.515942 -0.000005 -0.000001 0.257971 -0.000007 -0.000004 6.440303 -0.000007 -0.000004 6.440303 -0.000005 -0.000001 5.152249 0.000000 -0.000008 2.576118 -0.000014 0.000004 -0.314986 -0.000014 0.000004 -0.314986 0.000005 0.000003 -0.251992 0.000002 0.000003 -0.125996 -174.713373 -0.002980 -179.935447 -5.975060 5.412535 -11.236832 16.845342 -1.297489 0.744282 7.911437 2.371116 -0.664081 -9.535857 -1.491185 25.358815 -0.714621 5.289580 -14.234511 -0.935466 6.061956 -16.386133 -48.228723 31.293011 -5.681172 0.000004 -0.000001 -12.500003 0.000004 -0.000001 -12.500003 0.000004 0.000004 -9.999998 0.000001 -0.000002 -5.000002 0.000004 -0.000001 -12.500003 0.000004 -0.000001 -12.500003 0.000004 0.000004 -9.999998 0.000001 -0.000002 -5.000002 0.000005 -0.000002 47.204631 0.000005 -0.000002 47.204631 -0.000005 0.000004 37.763703 0.000002 0.000002 18.881842 0.000004 0.000001 24.811461 0.000004 0.000001 24.811461 0.000001 0.000006 19.849166 0.000006 -0.000006 9.924589 31.873545 3.338692 -2.454669 4.343090 6.430306 5.338884 0.000000 1.590176 0.000000 0.178466 -3.125950 1.177799 0.000000 -6.053732 0.000000 -7.525935 4.646277 -0.255664 0.000000 2.840956 0.000000 -9.565433 0.089669 2.671164 0.000000 -8.687918 0.000000
-23.622069 93.530206 9.481546 2.321147 -1.597016 -1.050319 -0.049631 0.526293 0.332360 -0.052847 0.631887 0.213469 -0.113187 0.754087 0.106369 -0.140185 0.836116 0.038073 0.419280 1.184712 0.247310 0.202218 -3.174897 -0.954604 7.124157 3.612635 11.020446 -19.032657 -1.824941 -4.209439 -8.295977 0.549725 0.980302 15.108892 -0.506879 -28.559360 31.873545 3.338692 -2.454669 36.653333 3.937627 -2.649602 -39.210100 -13.364093 0.509990 -0.000000 0.000000 -1.031067 -0.000000 0.000000 -1.031067 0.000000 0.000003 -0.824856 -0.000003 -0.000005 -0.412427 -0.000009 -0.000001 0.644931 -0.000009 -0.000001 0.644931 0.000003 -0.000007 0.515942 -0.000005 -0.000001 0.257971 -0.000007 -0.000004 6.440303 -0.000007 -0.000004 6.440303 -0.000005 -0.000001 5.152249 0.000000 -0.000008 2.576118 -0.000014 0.000004 -0.314986 -0.000014 0.000004 -0.314986 0.000005 0.000003 -0.251992 0.000002 0.000003 -0.125996 -174.713373 -0.002980 -179.935447 -5.968832 5.415246 -11.240680 16.844404 -1.294768 0.737478 7.912806 2.398551 -0.667413 -9.543597 -1.519469 25.360676 -0.714621 5.289580 -14.234511 -0.935466 6.061956 -16.386133 -48.228723 31.293011 -5.681172 0.000004 -0.000001 -12.500003 0.000004 -0.000001 -12.500003 0.000004 0.000004 -9.999998 0.000001 -0.000002 -5.000002 0.000004 -0.000001 -12.500003 0.000004 -0.000001 -12.500003 0.000004 0.000004 -9.999998 0.000001 -0.000002 -5.000002 0.000005 -0.000002 47.204631 0.000005 -0.000002 47.204631 -0.000005 0.000004 37.763703 0.000002 0.000002 18.881842 0.000004 0.000001 24.811461 0.000004 0.000001 24.811461 0.000001 0.000006 19.849166 0.000006 -0.000006 9.924589 31.873545 3.338692 -2.454669 4.331710 6.429411 5.335135 0.000000 1.596000 0.000000 0.224536 -3.106932 1.140760 0.000000 -6.105806 0.000000 -7.503196 4.650508 -0.254024 0.000000 2.828134 0.000000 -9.601532 0.089219 2.673770 0.000000 -8.697764 0.000000
